<svg width="428" height="428" viewBox="0 0 428 428" fill="none" xmlns="http://www.w3.org/2000/svg">
<path d="M143.813 122.48L192.667 73.4134V278C192.667 283.658 194.914 289.084 198.915 293.085C202.916 297.086 208.342 299.333 214 299.333C219.658 299.333 225.084 297.086 229.085 293.085C233.086 289.084 235.333 283.658 235.333 278V73.4134L284.187 122.48C286.17 124.48 288.529 126.067 291.129 127.15C293.729 128.233 296.517 128.79 299.333 128.79C302.15 128.79 304.938 128.233 307.538 127.15C310.137 126.067 312.497 124.48 314.48 122.48C316.479 120.497 318.067 118.137 319.15 115.538C320.233 112.938 320.79 110.15 320.79 107.333C320.79 104.517 320.233 101.729 319.15 99.1291C318.067 96.5294 316.479 94.1699 314.48 92.1867L229.147 6.85336C227.118 4.91116 224.725 3.38871 222.107 2.37336C216.913 0.239642 211.087 0.239642 205.893 2.37336C203.275 3.38871 200.882 4.91116 198.853 6.85336L113.52 92.1867C111.531 94.1758 109.953 96.5372 108.877 99.1361C107.8 101.735 107.246 104.52 107.246 107.333C107.246 110.146 107.8 112.932 108.877 115.531C109.953 118.13 111.531 120.491 113.52 122.48C115.509 124.469 117.87 126.047 120.469 127.123C123.068 128.2 125.854 128.754 128.667 128.754C131.48 128.754 134.265 128.2 136.864 127.123C139.463 126.047 141.824 124.469 143.813 122.48ZM406 214C400.342 214 394.916 216.248 390.915 220.248C386.914 224.249 384.667 229.675 384.667 235.333V363.333C384.667 368.991 382.419 374.418 378.418 378.418C374.417 382.419 368.991 384.667 363.333 384.667H64.6666C59.0087 384.667 53.5825 382.419 49.5817 378.418C45.5809 374.418 43.3333 368.991 43.3333 363.333V235.333C43.3333 229.675 41.0857 224.249 37.0849 220.248C33.0841 216.248 27.6579 214 22 214C16.342 214 10.9158 216.248 6.91501 220.248C2.91424 224.249 0.666626 229.675 0.666626 235.333V363.333C0.666626 380.307 7.40947 396.586 19.4118 408.588C31.4141 420.591 47.6928 427.333 64.6666 427.333H363.333C380.307 427.333 396.586 420.591 408.588 408.588C420.59 396.586 427.333 380.307 427.333 363.333V235.333C427.333 229.675 425.086 224.249 421.085 220.248C417.084 216.248 411.658 214 406 214Z" fill="#1D4ED8"/>
</svg>
