<svg width="475" height="414" viewBox="0 0 475 414" fill="none" xmlns="http://www.w3.org/2000/svg">
<path d="M29.6281 0C13.265 0 0 13.265 0 29.6281V29.6281C0 45.9912 13.2649 59.2562 29.6281 59.2562H444.421C460.784 59.2562 474.049 45.9912 474.049 29.6281V29.6281C474.049 13.265 460.784 0 444.421 0H29.6281ZM29.6281 175.991C13.265 175.991 0 189.256 0 205.619V205.619C0 221.982 13.2649 235.247 29.6281 235.247H444.421C460.784 235.247 474.049 221.982 474.049 205.619V205.619C474.049 189.256 460.784 175.991 444.421 175.991H29.6281ZM29.6281 353.759C13.265 353.759 0 367.024 0 383.387V383.387C0 399.751 13.2649 413.015 29.6281 413.015H444.421C460.784 413.015 474.049 399.751 474.049 383.387V383.387C474.049 367.024 460.784 353.759 444.421 353.759H29.6281Z" fill="white"/>
</svg>
