<svg width="384" height="512" viewBox="0 0 384 512" fill="none" xmlns="http://www.w3.org/2000/svg">
<path d="M8 511.935C10.1217 511.935 12.1566 511.093 13.6569 509.592C15.1571 508.092 16 506.057 16 503.935V415.567C16 398.079 25.328 381.599 40.336 372.607L102.96 335.023L137.328 377.983C138.032 378.861 138.913 379.581 139.914 380.097C140.915 380.612 142.012 380.912 143.136 380.975L143.584 380.991C145.696 380.991 147.744 380.159 149.248 378.655L168.016 359.887V503.935C168.016 506.057 168.859 508.092 170.359 509.592C171.859 511.093 173.894 511.935 176.016 511.935C178.138 511.935 180.173 511.093 181.673 509.592C183.173 508.092 184.016 506.057 184.016 503.935V343.999L184 343.903L192 335.887L200.016 343.903L200 343.999V503.935C200 506.057 200.843 508.092 202.343 509.592C203.843 511.093 205.878 511.935 208 511.935C210.122 511.935 212.157 511.093 213.657 509.592C215.157 508.092 216 506.057 216 503.935V359.887L234.768 378.655C235.512 379.398 236.396 379.986 237.368 380.387C238.339 380.788 239.381 380.993 240.432 380.991L240.88 380.975C242.004 380.912 243.101 380.612 244.102 380.097C245.103 379.581 245.984 378.861 246.688 377.983L281.056 335.023L343.696 372.607C351.091 377.083 357.211 383.385 361.467 390.909C365.723 398.432 367.973 406.924 368 415.567V503.935C368 506.057 368.843 508.092 370.343 509.592C371.843 511.093 373.878 511.935 376 511.935C378.122 511.935 380.157 511.093 381.657 509.592C383.157 508.092 384 506.057 384 503.935V415.567C384 392.479 371.696 370.767 351.904 358.895L284.288 318.335L258.944 290.175C257.889 289.048 256.524 288.258 255.02 287.905C253.517 287.552 251.943 287.652 250.496 288.191V259.823C263.016 250.658 273.2 238.672 280.225 224.838C287.249 211.003 290.916 195.708 290.928 180.191V142.495L303.392 73.0395C304.557 66.7219 304.445 60.235 303.063 53.9613C301.681 47.6877 299.056 41.7544 295.344 36.5115C291.663 31.2457 286.965 26.7703 281.527 23.3491C276.088 19.9279 270.02 17.6302 263.68 16.5915L168.352 0.70346C161.528 -0.434558 154.537 -0.0722251 147.867 1.76526C141.197 3.60274 135.007 6.87125 129.728 11.3435C120.722 18.9888 114.896 29.722 113.392 41.4395C103.952 43.1995 95.408 48.2395 89.248 55.8555C85.4229 60.5689 82.704 66.0805 81.2918 71.9842C79.8795 77.8879 79.8099 84.0333 81.088 89.9675L92.864 145.087C92.88 145.199 92.96 145.247 92.976 145.327V180.175C92.976 212.831 108.944 241.775 133.408 259.807V288.159C131.97 287.645 130.412 287.56 128.927 287.915C127.441 288.27 126.09 289.05 125.04 290.159L99.712 318.303L32.096 358.879C22.3304 364.779 14.248 373.093 8.62664 383.022C3.00533 392.95 0.0344532 404.158 0 415.567V503.935C0 506.057 0.842856 508.092 2.34315 509.592C3.84344 511.093 5.87827 511.935 8 511.935ZM268.672 324.879L239.76 361.023L205.664 326.927L251.056 305.311L268.672 324.879ZM101.68 65.9355C103.991 63.0651 106.918 60.751 110.244 59.1641C113.571 57.5772 117.211 56.7581 120.896 56.7675C125.312 56.7675 128.896 52.1115 128.896 47.6955C128.888 43.5405 129.699 39.4247 131.285 35.5841C132.871 31.7436 135.199 28.2539 138.136 25.3151C141.074 22.3764 144.562 20.0463 148.402 18.4587C152.242 16.8711 156.357 16.0571 160.512 16.0635C162.26 16.0648 164.004 16.2093 165.728 16.4955L261.056 32.3835C269.696 33.8235 277.216 38.5595 282.256 45.7115C287.296 52.8795 289.216 61.5675 287.632 70.1915L277.664 125.727L260.608 106.399V89.1995C260.608 87.0777 259.765 85.0429 258.265 83.5426C256.765 82.0423 254.73 81.1995 252.608 81.1995H131.296C129.174 81.1995 127.139 82.0423 125.639 83.5426C124.139 85.0429 123.296 87.0777 123.296 89.1995V106.351L105.216 126.431L96.72 86.6395C95.168 79.3115 96.976 71.7595 101.68 65.9355ZM108.976 180.175V146.175L137.248 114.767C138.569 113.301 139.299 111.397 139.296 109.423V97.1995H244.608V109.423C244.608 111.375 245.312 113.263 246.608 114.719L274.928 146.799V180.175C274.922 193.761 271.581 207.138 265.198 219.131C258.815 231.124 249.586 241.366 238.32 248.959L238.288 248.975C234.363 251.561 230.225 253.81 225.92 255.695C223.952 256.575 221.904 257.263 219.872 257.983C215.032 259.713 210.047 261.004 204.976 261.839C203.504 262.079 202 262.143 200.512 262.287C194.809 262.863 189.063 262.863 183.36 262.287C181.888 262.127 180.384 262.079 178.928 261.839C173.868 261.002 168.893 259.711 164.064 257.983C162.016 257.263 159.952 256.559 157.952 255.679C153.67 253.801 149.554 251.563 145.648 248.991L145.536 248.927C134.284 241.332 125.066 231.092 118.692 219.105C112.318 207.119 108.982 193.751 108.976 180.175ZM157.68 272.911C158.624 273.247 159.536 273.631 160.48 273.935C170.618 277.372 181.248 279.133 191.952 279.151C202.651 279.134 213.276 277.373 223.408 273.935C224.368 273.615 225.296 273.247 226.256 272.895C228.448 272.079 230.624 271.215 232.752 270.255C233.328 269.999 233.936 269.807 234.512 269.535V295.455L192 315.711L149.408 295.423V269.551C149.968 269.823 150.56 269.999 151.12 270.255C153.264 271.215 155.456 272.095 157.68 272.911ZM132.944 305.311L178.336 326.927L144.24 361.023L115.328 324.879L132.944 305.311Z" fill="#36A2EB"/>
<path d="M87.9998 511.935C90.1216 511.935 92.1564 511.092 93.6567 509.591C95.157 508.091 95.9998 506.056 95.9998 503.935V466.463C96.0163 449.963 89.8446 434.057 78.7038 421.887L66.5918 408.623C65.8827 407.846 65.0276 407.217 64.0753 406.771C63.1231 406.325 62.0923 406.071 61.0419 406.024C59.9915 405.976 58.942 406.136 57.9533 406.494C56.9647 406.852 56.0562 407.401 55.2798 408.111C54.5035 408.82 53.8744 409.675 53.4285 410.627C52.9826 411.579 52.7286 412.61 52.681 413.661C52.6335 414.711 52.7933 415.76 53.1514 416.749C53.5094 417.738 54.0587 418.646 54.7678 419.423L66.8798 432.687C75.3291 441.905 80.0112 453.958 79.9998 466.463V503.935C79.9998 506.056 80.8427 508.091 82.343 509.591C83.8433 511.092 85.8781 511.935 87.9998 511.935ZM317.408 408.623L305.296 421.903C294.156 434.067 287.984 449.968 288 466.463V503.935C288 506.056 288.843 508.091 290.343 509.591C291.843 511.092 293.878 511.935 296 511.935C298.122 511.935 300.156 511.092 301.657 509.591C303.157 508.091 304 506.056 304 503.935V466.463C304 453.935 308.656 441.935 317.104 432.687L329.216 419.423C329.925 418.647 330.474 417.74 330.833 416.752C331.191 415.765 331.352 414.716 331.305 413.666C331.258 412.617 331.005 411.586 330.56 410.635C330.115 409.683 329.487 408.828 328.712 408.119C327.937 407.409 327.029 406.86 326.041 406.502C325.054 406.143 324.005 405.983 322.955 406.029C321.906 406.076 320.876 406.329 319.924 406.774C318.972 407.219 318.117 407.847 317.408 408.623Z" fill="#36A2EB"/>
</svg>
