<svg width="622" height="1472" viewBox="0 0 622 1472" fill="none" xmlns="http://www.w3.org/2000/svg">
<g clip-path="url(#clip0_1057_2)">
<path d="M95.7011 856.61L95.701 856.609C93.2658 815.223 92.1619 777.496 92.1618 743.121M95.7011 856.61L99.3485 743.116M95.7011 856.61C97.0816 880.011 79.2079 900.117 55.7869 901.486L55.7741 901.487L55.7612 901.488C54.9344 901.539 54.1041 901.561 53.2446 901.561C30.9123 901.561 12.1988 884.146 10.8878 861.596L10.8874 861.59C8.35547 818.684 7.18686 779.311 7.18677 743.12M95.7011 856.61L7.18677 743.12M92.1618 743.121C92.1618 743.119 92.1618 743.118 92.1618 743.116H99.3485M92.1618 743.121C92.1618 743.123 92.1618 743.125 92.1618 743.126L99.3485 743.116M92.1618 743.121C91.9441 592.282 113.928 506.627 136.147 461.206L149.789 464.364V1395.2C149.789 1433.61 180.947 1464.73 219.368 1464.73C257.802 1464.73 288.959 1433.61 288.959 1395.2V835.013V827.827H296.146H324.926H332.112V835.013V1395.2C332.112 1433.61 363.27 1464.73 401.691 1464.73C440.125 1464.73 471.282 1433.61 471.282 1395.2V464.662L484.929 461.512C488.721 469.29 492.525 478.174 496.27 488.49L496.275 488.502C514.153 538.033 528.922 618.478 528.86 743.129M99.3485 743.116C99.1554 609.585 116.444 528.047 135.416 480.631V464.364H142.602L149.058 467.522C146.908 471.917 144.748 476.741 142.602 482.024V1395.2C142.602 1437.58 176.983 1471.92 219.368 1471.92C261.765 1471.92 296.146 1437.58 296.146 1395.2V842.2V835.013H303.332H317.739H324.926V842.2V1395.2C324.926 1437.58 359.306 1471.92 401.691 1471.92C444.088 1471.92 478.469 1437.58 478.469 1395.2V482.268C476.309 476.997 474.15 472.203 472.009 467.811L478.469 464.662H485.655V480.862C486.945 484.055 488.233 487.41 489.515 490.942C507.013 539.42 521.735 618.962 521.673 743.128M528.86 743.129C528.86 743.128 528.86 743.127 528.86 743.126L521.673 743.128M528.86 743.129C528.872 777.507 527.768 815.233 525.352 856.63L525.351 856.633C523.977 880.03 541.85 900.116 565.286 901.498M528.86 743.129C528.86 743.13 528.86 743.131 528.86 743.132L521.673 743.128M521.673 743.128C521.685 777.352 520.586 814.939 518.177 856.211C516.569 883.584 537.482 907.066 564.877 908.673M550.031 389.848C529.639 358.907 505.777 339.062 483.74 328.066C463.026 317.628 444.777 315.084 433.501 314.848C433.275 314.834 433.05 314.819 432.825 314.804C432.048 314.751 431.273 314.699 430.483 314.699H190.588C189.863 314.699 189.152 314.747 188.441 314.794C188.159 314.813 187.877 314.832 187.595 314.848C176.325 315.078 158.057 317.61 137.306 328.066C103.912 344.622 67.9047 380.819 42.7074 444.984C17.2059 509.391 0.0807207 602.511 0 743.116H7.18677M550.031 389.848L544.018 393.786M550.031 389.848L544.03 393.803C544.026 393.797 544.022 393.791 544.018 393.786M550.031 389.848C590.85 452.176 620.773 555.833 621.028 743.134M544.018 393.786C524.269 363.824 501.342 344.881 480.531 334.497L480.519 334.49L480.506 334.484C460.899 324.604 443.734 322.25 433.351 322.033L433.205 322.03L433.059 322.021C432.723 322.001 432.433 321.981 432.176 321.964C431.478 321.917 431.012 321.886 430.483 321.886H190.588C190.109 321.886 189.735 321.911 189.171 321.95C188.857 321.971 188.483 321.996 187.998 322.024L187.87 322.031L187.741 322.033C177.364 322.245 160.183 324.586 140.54 334.484L140.519 334.494L140.498 334.505C109.02 350.111 74.084 384.745 49.3969 447.611L49.3932 447.62L49.3895 447.63C24.3412 510.892 7.26753 603.022 7.18677 743.116M544.018 393.786C583.722 454.41 613.587 556.417 613.841 743.144M7.18677 743.116C7.18677 743.117 7.18677 743.119 7.18677 743.12M7.18677 743.116C7.18677 743.117 7.18677 743.119 7.18677 743.12M613.841 743.144C613.841 743.141 613.841 743.138 613.841 743.134H621.028M613.841 743.144C613.841 779.322 612.678 818.678 610.196 861.574M613.841 743.144L621.028 743.134M621.028 743.134C621.028 779.468 619.86 818.966 617.37 861.989M610.196 861.574C610.196 861.572 610.196 861.57 610.196 861.569L617.37 861.989M610.196 861.574C608.871 884.14 590.141 901.573 567.808 901.573C566.986 901.573 566.148 901.547 565.286 901.498M610.196 861.574L617.37 861.989M617.37 861.989C615.824 888.381 593.924 908.76 567.808 908.76C566.833 908.76 565.858 908.729 564.877 908.673M565.286 901.498C565.29 901.498 565.294 901.498 565.298 901.498L564.877 908.673M565.286 901.498L564.877 908.673M304.899 779.09L310.532 786.201L316.166 779.09L375.16 704.624L377.06 702.226L376.648 699.194L342.659 448.975L341.446 440.05L333.013 443.213C325.751 445.937 318.142 447.348 310.57 447.348H310.569H310.569H310.569H310.569H310.568H310.568H310.568H310.567H310.567H310.567H310.567H310.566H310.566H310.566H310.566H310.565H310.565H310.565H310.565H310.564H310.564H310.564H310.564H310.563H310.563H310.563H310.563H310.562H310.562H310.562H310.561H310.561H310.561H310.561H310.56H310.56H310.56H310.559H310.559H310.559H310.559H310.558H310.558H310.558H310.557H310.557H310.557H310.557H310.556H310.556H310.556H310.555H310.555H310.555H310.555H310.554H310.554H310.554H310.553H310.553H310.553H310.553H310.552H310.552H310.552H310.551H310.551H310.551H310.551H310.55H310.55H310.55H310.549H310.549H310.549H310.549H310.548H310.548H310.548H310.547H310.547H310.547H310.547H310.546H310.546H310.546H310.546H310.545H310.545H310.545H310.544H310.544H310.544H310.544H310.543H310.543H310.543H310.543H310.542H310.542H310.542H310.542H310.541H310.541H310.541H310.541H310.54H310.54H310.54H310.539H310.539H310.539H310.539H310.538H310.538H310.538H310.538H310.537H310.537H310.537H310.536H310.536H310.536H310.536H310.535H310.535H310.535H310.535H310.534H310.534H310.534H310.534H310.533H310.533H310.533H310.533H310.532L310.52 447.348L310.515 447.348C302.939 447.353 295.318 445.943 288.042 443.218L279.611 440.061L278.4 448.981L244.423 699.194L244.011 702.226L245.911 704.624L304.899 779.09ZM286.931 367.185H281.339L279.965 372.606L268.167 419.147L267.406 422.151L269.067 424.766L270.88 427.621L271.483 428.57L272.348 429.29C283.388 438.483 296.917 443.098 310.516 443.105H310.524C324.123 443.098 337.679 438.476 348.728 429.262L349.592 428.541L350.194 427.591L351.988 424.762L353.646 422.148L352.886 419.147L341.088 372.606L339.714 367.185H334.121H310.532H286.931Z" stroke="#36A2EB" stroke-width="14.3735"/>
<path d="M443.054 139.698C443.054 212.837 383.726 272.136 310.532 272.136C237.338 272.136 178.01 212.837 178.01 139.698C178.01 66.5593 237.338 7.26099 310.532 7.26099C383.726 7.26099 443.054 66.5593 443.054 139.698Z" stroke="#36A2EB" stroke-width="14.3735"/>
</g>
<defs>
<clipPath id="clip0_1057_2">
<rect width="621.034" height="1471.85" fill="white" transform="translate(0 0.0742188)"/>
</clipPath>
</defs>
</svg>
