<svg width="512" height="512" viewBox="0 0 512 512" fill="none" xmlns="http://www.w3.org/2000/svg">
<path d="M104 240H88.0002V104C88.0002 93.3913 92.2145 83.2172 99.7159 75.7157C107.217 68.2143 117.392 64 128 64H168V80H128C121.635 80 115.53 82.5286 111.03 87.0294C106.529 91.5303 104 97.6348 104 104V240ZM408 440C408 446.365 405.472 452.47 400.971 456.971C396.47 461.471 390.365 464 384 464H128C121.635 464 115.53 461.471 111.03 456.971C106.529 452.47 104 446.365 104 440V384H88.0002V440C88.0002 450.609 92.2145 460.783 99.7159 468.284C107.217 475.786 117.392 480 128 480H384C394.609 480 404.783 475.786 412.284 468.284C419.786 460.783 424 450.609 424 440V385.28H408V440ZM408 104V240H424V104C424 93.3913 419.786 83.2172 412.284 75.7157C404.783 68.2143 394.609 64 384 64H344V80H384C390.365 80 396.47 82.5286 400.971 87.0294C405.472 91.5303 408 97.6348 408 104ZM120 104V280H136V112H168V96H128C125.878 96 123.844 96.8429 122.343 98.3431C120.843 99.8434 120 101.878 120 104ZM120 400.88V440C120 442.122 120.843 444.157 122.343 445.657C123.844 447.157 125.878 448 128 448H384C386.122 448 388.157 447.157 389.657 445.657C391.157 444.157 392 442.122 392 440V399.52H376V432H136V400.88H120ZM376 280H392V104C392 101.878 391.157 99.8434 389.657 98.3431C388.157 96.8429 386.122 96 384 96H344V112H376V280ZM184 136V72C184 69.8783 184.843 67.8434 186.343 66.3431C187.844 64.8429 189.878 64 192 64H224C224 55.5131 227.372 47.3737 233.373 41.3726C239.374 35.3714 247.513 32 256 32C264.487 32 272.626 35.3714 278.628 41.3726C284.629 47.3737 288 55.5131 288 64H320C322.122 64 324.157 64.8429 325.657 66.3431C327.157 67.8434 328 69.8783 328 72V136C328 138.122 327.157 140.157 325.657 141.657C324.157 143.157 322.122 144 320 144H192C189.878 144 187.844 143.157 186.343 141.657C184.843 140.157 184 138.122 184 136ZM200 128H312V80H280C277.878 80 275.844 79.1571 274.343 77.6569C272.843 76.1566 272 74.1217 272 72V64C272 59.7565 270.315 55.6869 267.314 52.6863C264.313 49.6857 260.244 48 256 48C251.757 48 247.687 49.6857 244.686 52.6863C241.686 55.6869 240 59.7565 240 64V72C240 74.1217 239.157 76.1566 237.657 77.6569C236.157 79.1571 234.122 80 232 80H200V128ZM232 112H280V96H232V112ZM177.44 310.48C176.069 309.487 175.048 308.085 174.524 306.475C174 304.865 174.001 303.13 174.525 301.521C175.05 299.911 176.072 298.509 177.444 297.517C178.816 296.525 180.467 295.994 182.16 296H232.72L248.72 248C249.227 246.37 250.241 244.944 251.616 243.931C252.99 242.919 254.653 242.373 256.36 242.373C258.067 242.373 259.73 242.919 261.105 243.931C262.479 244.944 263.494 246.37 264 248L280 296H330.56C332.253 295.994 333.904 296.525 335.276 297.517C336.648 298.509 337.67 299.911 338.195 301.521C338.72 303.13 338.72 304.865 338.196 306.475C337.673 308.085 336.652 309.487 335.28 310.48L293.6 340.24L309.6 388.24C310.12 389.854 310.114 391.592 309.582 393.203C309.05 394.813 308.02 396.213 306.64 397.2C305.278 398.183 303.64 398.712 301.96 398.712C300.28 398.712 298.643 398.183 297.28 397.2L256 367.52L215.04 397.28C213.678 398.263 212.04 398.792 210.36 398.792C208.68 398.792 207.043 398.263 205.68 397.28C204.301 396.293 203.271 394.893 202.738 393.283C202.206 391.672 202.2 389.934 202.72 388.32L218.72 340.32L177.44 310.48ZM206.72 312L232.48 330.72C233.846 331.717 234.86 333.122 235.377 334.732C235.895 336.341 235.889 338.074 235.36 339.68L225.6 369.92L251.28 351.2C252.65 350.199 254.303 349.659 256 349.659C257.697 349.659 259.35 350.199 260.72 351.2L286.4 369.92L276.64 339.68C276.112 338.074 276.106 336.341 276.623 334.732C277.141 333.122 278.155 331.717 279.52 330.72L305.28 312H273.28C271.526 312.086 269.792 311.592 268.346 310.594C266.9 309.597 265.823 308.151 265.28 306.48L256 276.24L246.16 306.48C245.637 308.084 244.621 309.481 243.256 310.473C241.891 311.464 240.247 311.999 238.56 312H206.72ZM96.0002 360L64.0002 384C62.6326 385 60.9829 385.54 59.2888 385.542C57.5947 385.544 55.9437 385.008 54.5736 384.012C53.2035 383.015 52.1852 381.61 51.6652 379.997C51.1452 378.385 51.1504 376.649 51.6802 375.04L64.0002 336.96L32.0002 313.68C30.6343 312.691 29.6158 311.296 29.0901 309.694C28.5644 308.092 28.5584 306.364 29.073 304.759C29.5876 303.153 30.5964 301.751 31.9553 300.752C33.3143 299.754 34.954 299.211 36.6402 299.2H76.6402L88.8802 261.52C89.4063 259.919 90.4242 258.526 91.7889 257.538C93.1536 256.55 94.7954 256.018 96.4802 256.018C98.165 256.018 99.8068 256.55 101.171 257.538C102.536 258.526 103.554 259.919 104.08 261.52L116.32 299.2H156.32C158.007 299.201 159.651 299.736 161.016 300.727C162.381 301.719 163.397 303.116 163.92 304.72C164.35 306.437 164.198 308.247 163.489 309.869C162.779 311.49 161.553 312.83 160 313.68L128 336.96L140.24 374.72C140.853 376.36 140.911 378.156 140.406 379.832C139.9 381.509 138.858 382.973 137.44 384C136.07 385.001 134.417 385.541 132.72 385.541C131.023 385.541 129.37 385.001 128 384L96.0002 360ZM91.2802 344C92.6503 342.999 94.3033 342.459 96.0002 342.459C97.6971 342.459 99.3501 342.999 100.72 344L117.52 356.24L111.12 336.4C110.592 334.794 110.586 333.061 111.103 331.452C111.621 329.842 112.635 328.437 114 327.44L130.88 315.2H110.08C108.326 315.286 106.592 314.792 105.146 313.794C103.7 312.797 102.623 311.351 102.08 309.68L96.0002 289.92L89.6002 309.68C89.0577 311.351 87.9804 312.797 86.5346 313.794C85.0887 314.792 83.3547 315.286 81.6002 315.2H61.1202L78.0002 327.44C79.3655 328.437 80.3797 329.842 80.8972 331.452C81.4146 333.061 81.4086 334.794 80.8802 336.4L74.4802 356.24L91.2802 344ZM480 313.68L448 336.96L460.24 374.72C460.853 376.36 460.911 378.156 460.406 379.832C459.9 381.509 458.858 382.973 457.44 384C456.07 385.001 454.417 385.541 452.72 385.541C451.023 385.541 449.37 385.001 448 384L416 360L384 384C382.633 385 380.983 385.54 379.289 385.542C377.595 385.544 375.944 385.008 374.574 384.012C373.204 383.015 372.185 381.61 371.665 379.997C371.145 378.385 371.15 376.649 371.68 375.04L384 336.96L352 313.68C350.634 312.691 349.616 311.296 349.09 309.694C348.564 308.092 348.558 306.364 349.073 304.759C349.588 303.153 350.596 301.751 351.955 300.752C353.314 299.754 354.954 299.211 356.64 299.2H396.64L408.88 261.52C409.406 259.919 410.424 258.526 411.789 257.538C413.154 256.55 414.795 256.018 416.48 256.018C418.165 256.018 419.807 256.55 421.171 257.538C422.536 258.526 423.554 259.919 424.08 261.52L436.32 299.2H476.32C478.075 299.114 479.809 299.608 481.255 300.606C482.7 301.603 483.778 303.049 484.32 304.72C484.717 306.482 484.506 308.326 483.722 309.953C482.938 311.58 481.626 312.893 480 313.68ZM450.72 315.2H429.92C428.166 315.286 426.432 314.792 424.986 313.794C423.54 312.797 422.463 311.351 421.92 309.68L416 289.92L409.6 309.68C409.058 311.351 407.98 312.797 406.535 313.794C405.089 314.792 403.355 315.286 401.6 315.2H380.8L397.68 327.44C399.046 328.437 400.06 329.842 400.577 331.452C401.095 333.061 401.089 334.794 400.56 336.4L394.16 356.24L411.28 344C412.65 342.999 414.303 342.459 416 342.459C417.697 342.459 419.35 342.999 420.72 344L437.52 356.24L431.12 336.4C430.592 334.794 430.586 333.061 431.103 331.452C431.621 329.842 432.635 328.437 434 327.44L450.72 315.2Z" fill="#3B82F6"/>
</svg>
