<svg width="428" height="342" viewBox="0 0 428 342" fill="none" xmlns="http://www.w3.org/2000/svg">
<path fill-rule="evenodd" clip-rule="evenodd" d="M25.6605 25.3255C0.666995 50.3192 0.666992 90.5456 0.666992 170.999C0.666992 251.451 0.666995 291.679 25.6605 316.671C50.6542 341.665 90.8805 341.665 171.334 341.665H256.667C337.119 341.665 377.347 341.665 402.339 316.671C427.334 291.679 427.334 251.451 427.334 170.999C427.334 90.5456 427.334 50.3192 402.339 25.3255C377.347 0.332029 337.119 0.332031 256.667 0.332031H171.334C90.8805 0.332031 50.6542 0.332029 25.6605 25.3255ZM354.293 75.4224C359.948 82.2109 359.031 92.2998 352.242 97.957L305.386 137.006C286.476 152.763 271.15 165.535 257.623 174.235C243.532 183.297 229.81 189.023 214 189.023C198.19 189.023 184.469 183.297 170.377 174.235C156.851 165.535 141.525 152.763 122.616 137.006L75.7573 97.957C68.9689 92.2998 68.0517 82.2109 73.7087 75.4224C79.3659 68.6339 89.4548 67.7168 96.2433 73.3737L142.3 111.754C162.203 128.341 176.021 139.818 187.688 147.321C198.98 154.585 206.638 157.023 214 157.023C221.362 157.023 229.021 154.585 240.313 147.321C251.98 139.818 265.798 128.341 285.702 111.754L331.758 73.3737C338.546 67.7168 348.635 68.6339 354.293 75.4224Z" fill="#2563EB"/>
</svg>
