<svg width="118" height="136" viewBox="0 0 118 136" fill="none" xmlns="http://www.w3.org/2000/svg">
<path d="M98.9 48.7H88.1L90.1 46.4L90.8 45.6H98.8V48.7H98.9ZM98.9 42.7V36.8L93.5 42.7H98.9ZM98.9 51.7H85.5L84.4 52.8L82.6 54.8H98.8V51.7H98.9ZM19.1 24.6H41.2L38.3 21.6H19.1V24.6ZM19.1 0.599976V6.49997H24.9L19.1 0.599976ZM27.4 9.49997H19.1V12.5H30.4L27.4 9.49997ZM19.1 18.5H35.8L32.9 15.5H19.1V18.5ZM98.9 57.7H80L78.7 59.1L77.2 60.7H98.9V57.7ZM19.1 84.9H31.7L32.9 83.5L34.3 81.9H19.1V84.9ZM19.1 78.8H36.8L39.3 75.8H19V78.8H19.1ZM118 78.8V75.8H63.7L61.5 78.1L60.8 78.9H118V78.8ZM0.0999985 60.8H52.1L54.6 57.8H0V60.8H0.0999985ZM19.1 90.9H26.6L29.1 87.9H19V90.9H19.1ZM98.9 63.8H74.6L73 65.5L71.8 66.8H98.9V63.8ZM0.0999985 54.7H57.2L59.8 51.7H26.4H26H0.199997V54.7H0.0999985ZM0.0999985 63.8V66.8H47L47.8 65.9L49.6 63.8H0.0999985ZM70.9 103H118V100H68.1L70.9 103ZM81.2 115H98.9V112H78.4L81.2 115ZM98.9 135.4V130.1H94L98.9 135.4ZM83.1 96.9H118V93.9H85.7L83.1 96.9ZM43.6 27.6H19V30.6H46.5L43.6 27.6ZM98.9 124.1H88.8L91.6 127.1H98.9V124.1ZM88.2 90.9H118V87.9H90.8L88.2 90.9ZM55.4 84.9H93.4H118V81.9H58.4L55.4 84.9ZM69.2 69.8L67 72.1L66.3 72.8H118V69.8H69.2ZM98.9 118H83.6L86.4 121H98.8V118H98.9ZM35 39.7H0V42.7H32.7L35 39.7ZM49.1 33.6H42.9H0.0999985V36.6H52.1L49.1 33.6ZM30.5 45.7H0.0999985V48.7H28.2L30.5 45.7ZM98.9 106H73.2L76 109H98.9V106ZM44.1 70.2L44.4 69.8H0V72.8H41.8L44.1 70.2ZM24.1 93.9H19.1V99.9L24.1 93.9Z" fill="#005CB9"/>
</svg>
