<svg width="1240" height="638" viewBox="0 0 1240 638" fill="none" xmlns="http://www.w3.org/2000/svg">
<path fill-rule="evenodd" clip-rule="evenodd" d="M0 0H1240V638H0V0ZM806.657 572.592C805.394 573.855 803.753 574.652 802 574.873V575H432V574.873C430.247 574.652 428.606 573.855 427.343 572.592C425.843 571.092 425 569.057 425 566.935V478.567C425.034 467.158 428.005 455.95 433.627 446.022C439.248 436.093 447.33 427.779 457.096 421.879L524.712 381.303L550.04 353.159C551.09 352.05 552.441 351.27 553.927 350.915C555.412 350.56 556.97 350.645 558.408 351.159V322.807C533.944 304.775 517.976 275.831 517.976 243.175V208.327C517.973 208.312 517.968 208.298 517.961 208.284C517.952 208.266 517.94 208.249 517.928 208.231C517.902 208.192 517.873 208.15 517.864 208.087L506.088 152.967C504.81 147.033 504.88 140.888 506.292 134.984C507.704 129.081 510.423 123.569 514.248 118.855C520.408 111.239 528.952 106.199 538.392 104.439C539.896 92.722 545.722 81.9888 554.728 74.3435C560.007 69.8713 566.197 66.6027 572.867 64.7653C579.537 62.9278 586.528 62.5654 593.352 63.7035L688.68 79.5915C695.02 80.6302 701.088 82.9279 706.527 86.3491C711.965 89.7703 716.663 94.2457 720.344 99.5115C724.056 104.754 726.681 110.688 728.063 116.961C729.445 123.235 729.557 129.722 728.392 136.039L715.928 205.495V243.191C715.916 258.708 712.249 274.003 705.225 287.838C698.2 301.672 688.016 313.658 675.496 322.823V351.191C676.943 350.652 678.517 350.552 680.02 350.905C681.524 351.258 682.889 352.048 683.944 353.175L709.288 381.335L776.904 421.895C796.696 433.767 809 455.479 809 478.567V566.935C809 569.057 808.157 571.092 806.657 572.592Z" fill="white"/>
</svg>
