<svg width="1083" height="833" viewBox="0 0 1083 833" fill="none" xmlns="http://www.w3.org/2000/svg">
<path fill-rule="evenodd" clip-rule="evenodd" d="M0 0H1083V833H0V0ZM334 559C334 553.477 338.477 549 344 549H351V534H367V522H382V513H404V505H415V497H420.169L464 453.817V410.84C447.734 409.091 435 393.265 435 374H428V287.715C420.989 282.595 416 269.431 416 254C416 238.569 420.989 225.405 428 220.285V218H434.5H445V208.953C443.691 207.038 443 205.046 443 203C443 188.088 479.713 176 525 176C566.16 176 600.236 185.985 606.106 199H616V260H612V374H601.957C601.986 374.662 602 375.329 602 376C602 395.33 590.136 411 575.5 411C574.997 411 574.496 410.981 574 410.945V453.978L617.667 497H624V505H636V513H658V522H673V534H687V549H694C699.523 549 704 553.477 704 559V677H334V559Z" fill="white"/>
<path d="M335 676.935C337.122 676.935 339.157 676.093 340.657 674.592C342.157 673.092 343 671.057 343 668.935V580.567C343 563.079 352.328 546.599 367.336 537.607L429.96 500.023L464.328 542.983C465.032 543.861 465.913 544.581 466.914 545.097C467.915 545.612 469.012 545.912 470.136 545.975L470.584 545.991C472.696 545.991 474.744 545.159 476.248 543.655L495.016 524.887V668.935C495.016 671.057 495.859 673.092 497.359 674.592C498.859 676.093 500.894 676.935 503.016 676.935C505.138 676.935 507.173 676.093 508.673 674.592C510.173 673.092 511.016 671.057 511.016 668.935V508.999L511 508.903L519 500.887L527.016 508.903L527 508.999V668.935C527 671.057 527.843 673.092 529.343 674.592C530.843 676.093 532.878 676.935 535 676.935C537.122 676.935 539.157 676.093 540.657 674.592C542.157 673.092 543 671.057 543 668.935V524.887L561.768 543.655C562.512 544.398 563.396 544.986 564.368 545.387C565.339 545.788 566.381 545.993 567.432 545.991L567.88 545.975C569.004 545.912 570.101 545.612 571.102 545.097C572.103 544.581 572.984 543.861 573.688 542.983L608.056 500.023L670.696 537.607C678.091 542.083 684.211 548.385 688.467 555.909C692.723 563.432 694.973 571.924 695 580.567V668.935C695 671.057 695.843 673.092 697.343 674.592C698.843 676.093 700.878 676.935 703 676.935C705.122 676.935 707.157 676.093 708.657 674.592C710.157 673.092 711 671.057 711 668.935V580.567C711 557.479 698.696 535.767 678.904 523.895L611.288 483.335L585.944 455.175C584.889 454.048 583.524 453.258 582.02 452.905C580.517 452.552 578.943 452.652 577.496 453.191V424.823C590.016 415.658 600.2 403.672 607.225 389.838C614.249 376.003 617.916 360.708 617.928 345.191V307.495L630.392 238.039C631.557 231.722 631.445 225.235 630.063 218.961C628.681 212.688 626.056 206.754 622.344 201.511C618.663 196.246 613.965 191.77 608.527 188.349C603.088 184.928 597.02 182.63 590.68 181.591L495.352 165.703C488.528 164.565 481.537 164.928 474.867 166.765C468.197 168.603 462.007 171.871 456.728 176.343C447.722 183.989 441.896 194.722 440.392 206.439C430.952 208.199 422.408 213.239 416.248 220.855C412.423 225.569 409.704 231.081 408.292 236.984C406.88 242.888 406.81 249.033 408.088 254.967L419.864 310.087C419.88 310.199 419.96 310.247 419.976 310.327V345.175C419.976 377.831 435.944 406.775 460.408 424.807V453.159C458.97 452.645 457.412 452.56 455.927 452.915C454.441 453.27 453.09 454.05 452.04 455.159L426.712 483.303L359.096 523.879C349.33 529.779 341.248 538.093 335.627 548.022C330.005 557.95 327.034 569.158 327 580.567V668.935C327 671.057 327.843 673.092 329.343 674.592C330.843 676.093 332.878 676.935 335 676.935ZM595.672 489.879L566.76 526.023L532.664 491.927L578.056 470.311L595.672 489.879ZM428.68 230.935C430.991 228.065 433.918 225.751 437.244 224.164C440.571 222.577 444.211 221.758 447.896 221.767C452.312 221.767 455.896 217.111 455.896 212.695C455.888 208.54 456.699 204.425 458.285 200.584C459.871 196.744 462.199 193.254 465.136 190.315C468.074 187.376 471.562 185.046 475.402 183.459C479.242 181.871 483.357 181.057 487.512 181.063C489.26 181.065 491.004 181.209 492.728 181.495L588.056 197.383C596.696 198.823 604.216 203.559 609.256 210.711C614.296 217.879 616.216 226.567 614.632 235.191L604.664 290.727L587.608 271.399V254.199C587.608 252.078 586.765 250.043 585.265 248.543C583.765 247.042 581.73 246.199 579.608 246.199H458.296C456.174 246.199 454.139 247.042 452.639 248.543C451.139 250.043 450.296 252.078 450.296 254.199V271.351L432.216 291.431L423.72 251.639C422.168 244.311 423.976 236.759 428.68 230.935ZM435.976 345.175V311.175L464.248 279.767C465.569 278.301 466.299 276.397 466.296 274.423V262.199H571.608V274.423C571.608 276.375 572.312 278.263 573.608 279.719L601.928 311.799V345.175C601.922 358.761 598.581 372.138 592.198 384.131C585.815 396.124 576.586 406.366 565.32 413.959L565.288 413.975C561.363 416.561 557.225 418.81 552.92 420.695C550.952 421.575 548.904 422.263 546.872 422.983C542.032 424.713 537.047 426.004 531.976 426.839C530.504 427.079 529 427.143 527.512 427.287C521.809 427.863 516.063 427.863 510.36 427.287C508.888 427.127 507.384 427.079 505.928 426.839C500.868 426.002 495.893 424.711 491.064 422.983C489.016 422.263 486.952 421.559 484.952 420.679C480.67 418.801 476.554 416.563 472.648 413.991L472.536 413.927C461.284 406.332 452.066 396.092 445.692 384.105C439.318 372.119 435.982 358.751 435.976 345.175ZM484.68 437.911C485.624 438.247 486.536 438.631 487.48 438.935C497.618 442.372 508.248 444.133 518.952 444.151C529.651 444.134 540.276 442.373 550.408 438.935C551.368 438.615 552.296 438.247 553.256 437.895C555.448 437.079 557.624 436.215 559.752 435.255C560.328 434.999 560.936 434.807 561.512 434.535V460.455L519 480.711L476.408 460.423V434.551C476.968 434.823 477.56 434.999 478.12 435.255C480.264 436.215 482.456 437.095 484.68 437.911ZM459.944 470.311L505.336 491.927L471.24 526.023L442.328 489.879L459.944 470.311Z" fill="#36A2EB"/>
<path d="M415 676.935C417.122 676.935 419.156 676.092 420.657 674.591C422.157 673.091 423 671.056 423 668.935V631.463C423.016 614.963 416.845 599.057 405.704 586.887L393.592 573.623C392.883 572.846 392.028 572.217 391.075 571.771C390.123 571.325 389.092 571.071 388.042 571.024C386.991 570.976 385.942 571.136 384.953 571.494C383.965 571.852 383.056 572.401 382.28 573.111C381.503 573.82 380.874 574.675 380.428 575.627C379.983 576.579 379.729 577.61 379.681 578.661C379.633 579.711 379.793 580.76 380.151 581.749C380.509 582.738 381.059 583.646 381.768 584.423L393.88 597.687C402.329 606.905 407.011 618.958 407 631.463V668.935C407 671.056 407.843 673.091 409.343 674.591C410.843 676.092 412.878 676.935 415 676.935ZM644.408 573.623L632.296 586.903C621.156 599.067 614.984 614.968 615 631.463V668.935C615 671.056 615.843 673.091 617.343 674.591C618.843 676.092 620.878 676.935 623 676.935C625.122 676.935 627.156 676.092 628.657 674.591C630.157 673.091 631 671.056 631 668.935V631.463C631 618.935 635.656 606.935 644.104 597.687L656.216 584.423C656.925 583.647 657.474 582.74 657.833 581.752C658.191 580.765 658.352 579.716 658.305 578.666C658.258 577.617 658.005 576.586 657.56 575.635C657.115 574.683 656.487 573.828 655.712 573.119C654.937 572.409 654.029 571.86 653.041 571.502C652.054 571.143 651.005 570.983 649.955 571.029C648.906 571.076 647.876 571.329 646.924 571.774C645.972 572.219 645.117 572.847 644.408 573.623Z" fill="#36A2EB"/>
</svg>
